solid OpenSCAD_Model
  facet normal 1 -0 0
    outer loop
      vertex 1.5 2 2
      vertex 1.5 14 0
      vertex 1.5 14 2
    endloop
  endfacet
  facet normal 1 0 0
    outer loop
      vertex 1.5 14 0
      vertex 1.5 2 2
      vertex 1.5 2 0
    endloop
  endfacet
  facet normal -1 0 0
    outer loop
      vertex 3.5 2 0
      vertex 3.5 14 2
      vertex 3.5 14 0
    endloop
  endfacet
  facet normal -1 -0 0
    outer loop
      vertex 3.5 14 2
      vertex 3.5 2 0
      vertex 3.5 2 2
    endloop
  endfacet
  facet normal 0 -1 0
    outer loop
      vertex 1.5 14 0
      vertex 3.5 14 2
      vertex 1.5 14 2
    endloop
  endfacet
  facet normal 0 -1 -0
    outer loop
      vertex 3.5 14 2
      vertex 1.5 14 0
      vertex 3.5 14 0
    endloop
  endfacet
  facet normal 0 1 -0
    outer loop
      vertex 3.5 2 0
      vertex 1.5 2 2
      vertex 3.5 2 2
    endloop
  endfacet
  facet normal 0 1 0
    outer loop
      vertex 1.5 2 2
      vertex 3.5 2 0
      vertex 1.5 2 0
    endloop
  endfacet
  facet normal 1 -0 0
    outer loop
      vertex 6.5 2 2
      vertex 6.5 14 0
      vertex 6.5 14 2
    endloop
  endfacet
  facet normal 1 0 0
    outer loop
      vertex 6.5 14 0
      vertex 6.5 2 2
      vertex 6.5 2 0
    endloop
  endfacet
  facet normal -1 0 0
    outer loop
      vertex 8.5 2 0
      vertex 8.5 14 2
      vertex 8.5 14 0
    endloop
  endfacet
  facet normal -1 -0 0
    outer loop
      vertex 8.5 14 2
      vertex 8.5 2 0
      vertex 8.5 2 2
    endloop
  endfacet
  facet normal 0 -1 0
    outer loop
      vertex 6.5 14 0
      vertex 8.5 14 2
      vertex 6.5 14 2
    endloop
  endfacet
  facet normal 0 -1 -0
    outer loop
      vertex 8.5 14 2
      vertex 6.5 14 0
      vertex 8.5 14 0
    endloop
  endfacet
  facet normal 0 1 -0
    outer loop
      vertex 8.5 2 0
      vertex 6.5 2 2
      vertex 8.5 2 2
    endloop
  endfacet
  facet normal 0 1 0
    outer loop
      vertex 6.5 2 2
      vertex 8.5 2 0
      vertex 6.5 2 0
    endloop
  endfacet
  facet normal 0.987688 0.156435 0
    outer loop
      vertex 10 14 2
      vertex 9.90211 14.618 0
      vertex 9.90211 14.618 2
    endloop
  endfacet
  facet normal 0.987688 0.156435 0
    outer loop
      vertex 9.90211 14.618 0
      vertex 10 14 2
      vertex 10 14 0
    endloop
  endfacet
  facet normal 0.707107 0.707107 0
    outer loop
      vertex 9.61803 15.1756 2
      vertex 9.17557 15.618 0
      vertex 9.17557 15.618 2
    endloop
  endfacet
  facet normal 0.707107 0.707107 0
    outer loop
      vertex 9.17557 15.618 0
      vertex 9.61803 15.1756 2
      vertex 9.61803 15.1756 0
    endloop
  endfacet
  facet normal 0 1 -0
    outer loop
      vertex 8 16 0
      vertex 2 16 2
      vertex 8 16 2
    endloop
  endfacet
  facet normal 0 1 0
    outer loop
      vertex 2 16 2
      vertex 8 16 0
      vertex 2 16 0
    endloop
  endfacet
  facet normal 0.453991 0.891006 -0
    outer loop
      vertex 9.17557 15.618 0
      vertex 8.61803 15.9021 2
      vertex 9.17557 15.618 2
    endloop
  endfacet
  facet normal 0.453991 0.891006 0
    outer loop
      vertex 8.61803 15.9021 2
      vertex 9.17557 15.618 0
      vertex 8.61803 15.9021 0
    endloop
  endfacet
  facet normal 0.891006 0.453991 0
    outer loop
      vertex 9.90211 14.618 2
      vertex 9.61803 15.1756 0
      vertex 9.61803 15.1756 2
    endloop
  endfacet
  facet normal 0.891006 0.453991 0
    outer loop
      vertex 9.61803 15.1756 0
      vertex 9.90211 14.618 2
      vertex 9.90211 14.618 0
    endloop
  endfacet
  facet normal 1 -0 0
    outer loop
      vertex 10 2 2
      vertex 10 14 0
      vertex 10 14 2
    endloop
  endfacet
  facet normal 1 0 0
    outer loop
      vertex 10 14 0
      vertex 10 2 2
      vertex 10 2 0
    endloop
  endfacet
  facet normal 0.156433 -0.987689 0
    outer loop
      vertex 8 0 0
      vertex 8.61803 0.0978861 2
      vertex 8 0 2
    endloop
  endfacet
  facet normal 0.156433 -0.987689 0
    outer loop
      vertex 8.61803 0.0978861 2
      vertex 8 0 0
      vertex 8.61803 0.0978861 0
    endloop
  endfacet
  facet normal -0.987689 -0.156433 0
    outer loop
      vertex 0.0978861 1.38197 0
      vertex 0 2 2
      vertex 0 2 0
    endloop
  endfacet
  facet normal -0.987689 -0.156433 0
    outer loop
      vertex 0 2 2
      vertex 0.0978861 1.38197 0
      vertex 0.0978861 1.38197 2
    endloop
  endfacet
  facet normal -0.891006 0.453991 0
    outer loop
      vertex 0.0978861 14.618 0
      vertex 0.381966 15.1756 2
      vertex 0.381966 15.1756 0
    endloop
  endfacet
  facet normal -0.891006 0.453991 0
    outer loop
      vertex 0.381966 15.1756 2
      vertex 0.0978861 14.618 0
      vertex 0.0978861 14.618 2
    endloop
  endfacet
  facet normal 0.156435 0.987688 -0
    outer loop
      vertex 8.61803 15.9021 0
      vertex 8 16 2
      vertex 8.61803 15.9021 2
    endloop
  endfacet
  facet normal 0.156435 0.987688 0
    outer loop
      vertex 8 16 2
      vertex 8.61803 15.9021 0
      vertex 8 16 0
    endloop
  endfacet
  facet normal -0.453991 -0.891006 0
    outer loop
      vertex 0.824429 0.381966 0
      vertex 1.38197 0.0978861 2
      vertex 0.824429 0.381966 2
    endloop
  endfacet
  facet normal -0.453991 -0.891006 -0
    outer loop
      vertex 1.38197 0.0978861 2
      vertex 0.824429 0.381966 0
      vertex 1.38197 0.0978861 0
    endloop
  endfacet
  facet normal -1 0 0
    outer loop
      vertex 0 2 0
      vertex 0 14 2
      vertex 0 14 0
    endloop
  endfacet
  facet normal -1 -0 0
    outer loop
      vertex 0 14 2
      vertex 0 2 0
      vertex 0 2 2
    endloop
  endfacet
  facet normal 0 0 -1
    outer loop
      vertex 8.5 2 0
      vertex 10 2 0
      vertex 9.90211 1.38197 0
    endloop
  endfacet
  facet normal 0 0 -1
    outer loop
      vertex 10 2 0
      vertex 8.5 2 0
      vertex 10 14 0
    endloop
  endfacet
  facet normal 0 0 -1
    outer loop
      vertex 8.5 2 0
      vertex 9.90211 1.38197 0
      vertex 9.61803 0.824429 0
    endloop
  endfacet
  facet normal 0 0 -1
    outer loop
      vertex 8.5 14 0
      vertex 10 14 0
      vertex 8.5 2 0
    endloop
  endfacet
  facet normal 0 0 -1
    outer loop
      vertex 8.5 2 0
      vertex 9.61803 0.824429 0
      vertex 9.17557 0.381966 0
    endloop
  endfacet
  facet normal 0 0 -1
    outer loop
      vertex 10 14 0
      vertex 8.5 14 0
      vertex 9.90211 14.618 0
    endloop
  endfacet
  facet normal 0 0 -1
    outer loop
      vertex 8.5 2 0
      vertex 9.17557 0.381966 0
      vertex 8.61803 0.0978861 0
    endloop
  endfacet
  facet normal -0 0 -1
    outer loop
      vertex 9.90211 14.618 0
      vertex 8.5 14 0
      vertex 9.61803 15.1756 0
    endloop
  endfacet
  facet normal -0 0 -1
    outer loop
      vertex 9.61803 15.1756 0
      vertex 8.5 14 0
      vertex 9.17557 15.618 0
    endloop
  endfacet
  facet normal 0 0 -1
    outer loop
      vertex 8 0 0
      vertex 8.5 2 0
      vertex 8.61803 0.0978861 0
    endloop
  endfacet
  facet normal 0 0 -1
    outer loop
      vertex 8 0 0
      vertex 6.5 2 0
      vertex 8.5 2 0
    endloop
  endfacet
  facet normal 0 0 -1
    outer loop
      vertex 6.5 2 0
      vertex 3.5 2 0
      vertex 6.5 14 0
    endloop
  endfacet
  facet normal 0 0 -1
    outer loop
      vertex 8 0 0
      vertex 3.5 2 0
      vertex 6.5 2 0
    endloop
  endfacet
  facet normal 0 0 -1
    outer loop
      vertex 2 0 0
      vertex 3.5 2 0
      vertex 8 0 0
    endloop
  endfacet
  facet normal 0 0 -1
    outer loop
      vertex 2 0 0
      vertex 1.5 2 0
      vertex 3.5 2 0
    endloop
  endfacet
  facet normal 0 0 -1
    outer loop
      vertex 0.824429 0.381966 0
      vertex 1.5 2 0
      vertex 1.38197 0.0978861 0
    endloop
  endfacet
  facet normal 0 0 -1
    outer loop
      vertex 1.38197 0.0978861 0
      vertex 1.5 2 0
      vertex 2 0 0
    endloop
  endfacet
  facet normal -0 0 -1
    outer loop
      vertex 9.17557 15.618 0
      vertex 8.5 14 0
      vertex 8.61803 15.9021 0
    endloop
  endfacet
  facet normal 0 0 -1
    outer loop
      vertex 8.5 14 0
      vertex 8 16 0
      vertex 8.61803 15.9021 0
    endloop
  endfacet
  facet normal 0 0 -1
    outer loop
      vertex 6.5 14 0
      vertex 8 16 0
      vertex 8.5 14 0
    endloop
  endfacet
  facet normal 0 0 -1
    outer loop
      vertex 3.5 14 0
      vertex 6.5 14 0
      vertex 3.5 2 0
    endloop
  endfacet
  facet normal 0 0 -1
    outer loop
      vertex 3.5 14 0
      vertex 8 16 0
      vertex 6.5 14 0
    endloop
  endfacet
  facet normal 0 0 -1
    outer loop
      vertex 3.5 14 0
      vertex 2 16 0
      vertex 8 16 0
    endloop
  endfacet
  facet normal 0 0 -1
    outer loop
      vertex 1.5 14 0
      vertex 2 16 0
      vertex 3.5 14 0
    endloop
  endfacet
  facet normal 0 0 -1
    outer loop
      vertex 1.5 14 0
      vertex 1.38197 15.9021 0
      vertex 2 16 0
    endloop
  endfacet
  facet normal 0 0 -1
    outer loop
      vertex 1.5 2 0
      vertex 0 2 0
      vertex 1.5 14 0
    endloop
  endfacet
  facet normal 0 0 -1
    outer loop
      vertex 0.381966 0.824429 0
      vertex 1.5 2 0
      vertex 0.824429 0.381966 0
    endloop
  endfacet
  facet normal 0 0 -1
    outer loop
      vertex 0 14 0
      vertex 1.5 14 0
      vertex 0 2 0
    endloop
  endfacet
  facet normal 0 0 -1
    outer loop
      vertex 0.0978861 1.38197 0
      vertex 1.5 2 0
      vertex 0.381966 0.824429 0
    endloop
  endfacet
  facet normal 0 -0 -1
    outer loop
      vertex 0.0978861 14.618 0
      vertex 1.5 14 0
      vertex 0 14 0
    endloop
  endfacet
  facet normal -0 0 -1
    outer loop
      vertex 1.5 2 0
      vertex 0.0978861 1.38197 0
      vertex 0 2 0
    endloop
  endfacet
  facet normal 0 0 -1
    outer loop
      vertex 1.5 14 0
      vertex 0.824429 15.618 0
      vertex 1.38197 15.9021 0
    endloop
  endfacet
  facet normal 0 0 -1
    outer loop
      vertex 1.5 14 0
      vertex 0.381966 15.1756 0
      vertex 0.824429 15.618 0
    endloop
  endfacet
  facet normal 0 0 -1
    outer loop
      vertex 1.5 14 0
      vertex 0.0978861 14.618 0
      vertex 0.381966 15.1756 0
    endloop
  endfacet
  facet normal 0 0 1
    outer loop
      vertex 8.5 14 2
      vertex 10 14 2
      vertex 9.90211 14.618 2
    endloop
  endfacet
  facet normal 0 0 1
    outer loop
      vertex 10 14 2
      vertex 8.5 14 2
      vertex 10 2 2
    endloop
  endfacet
  facet normal 0 0 1
    outer loop
      vertex 8.5 14 2
      vertex 9.90211 14.618 2
      vertex 9.61803 15.1756 2
    endloop
  endfacet
  facet normal 0 0 1
    outer loop
      vertex 8.5 2 2
      vertex 10 2 2
      vertex 8.5 14 2
    endloop
  endfacet
  facet normal 0 0 1
    outer loop
      vertex 8.5 14 2
      vertex 9.61803 15.1756 2
      vertex 9.17557 15.618 2
    endloop
  endfacet
  facet normal 0 0 1
    outer loop
      vertex 10 2 2
      vertex 8.5 2 2
      vertex 9.90211 1.38197 2
    endloop
  endfacet
  facet normal 0 0 1
    outer loop
      vertex 8.5 14 2
      vertex 9.17557 15.618 2
      vertex 8.61803 15.9021 2
    endloop
  endfacet
  facet normal 0 0 1
    outer loop
      vertex 9.90211 1.38197 2
      vertex 8.5 2 2
      vertex 9.61803 0.824429 2
    endloop
  endfacet
  facet normal 0 0 1
    outer loop
      vertex 9.61803 0.824429 2
      vertex 8.5 2 2
      vertex 9.17557 0.381966 2
    endloop
  endfacet
  facet normal 0 0 1
    outer loop
      vertex 8 16 2
      vertex 8.5 14 2
      vertex 8.61803 15.9021 2
    endloop
  endfacet
  facet normal 0 0 1
    outer loop
      vertex 8 16 2
      vertex 6.5 14 2
      vertex 8.5 14 2
    endloop
  endfacet
  facet normal 0 0 1
    outer loop
      vertex 6.5 14 2
      vertex 3.5 14 2
      vertex 6.5 2 2
    endloop
  endfacet
  facet normal 0 0 1
    outer loop
      vertex 8 16 2
      vertex 3.5 14 2
      vertex 6.5 14 2
    endloop
  endfacet
  facet normal -0 0 1
    outer loop
      vertex 2 16 2
      vertex 3.5 14 2
      vertex 8 16 2
    endloop
  endfacet
  facet normal 0 0 1
    outer loop
      vertex 2 16 2
      vertex 1.5 14 2
      vertex 3.5 14 2
    endloop
  endfacet
  facet normal -0 0 1
    outer loop
      vertex 0.824429 15.618 2
      vertex 1.5 14 2
      vertex 1.38197 15.9021 2
    endloop
  endfacet
  facet normal -0 0 1
    outer loop
      vertex 1.38197 15.9021 2
      vertex 1.5 14 2
      vertex 2 16 2
    endloop
  endfacet
  facet normal 0 0 1
    outer loop
      vertex 9.17557 0.381966 2
      vertex 8.5 2 2
      vertex 8.61803 0.0978861 2
    endloop
  endfacet
  facet normal 0 0 1
    outer loop
      vertex 8.5 2 2
      vertex 8 0 2
      vertex 8.61803 0.0978861 2
    endloop
  endfacet
  facet normal -0 0 1
    outer loop
      vertex 6.5 2 2
      vertex 8 0 2
      vertex 8.5 2 2
    endloop
  endfacet
  facet normal 0 0 1
    outer loop
      vertex 3.5 2 2
      vertex 6.5 2 2
      vertex 3.5 14 2
    endloop
  endfacet
  facet normal -0 0 1
    outer loop
      vertex 3.5 2 2
      vertex 8 0 2
      vertex 6.5 2 2
    endloop
  endfacet
  facet normal 0 0 1
    outer loop
      vertex 3.5 2 2
      vertex 2 0 2
      vertex 8 0 2
    endloop
  endfacet
  facet normal -0 0 1
    outer loop
      vertex 1.5 2 2
      vertex 2 0 2
      vertex 3.5 2 2
    endloop
  endfacet
  facet normal 0 0 1
    outer loop
      vertex 1.5 2 2
      vertex 1.38197 0.0978861 2
      vertex 2 0 2
    endloop
  endfacet
  facet normal 0 0 1
    outer loop
      vertex 1.5 14 2
      vertex 0 14 2
      vertex 1.5 2 2
    endloop
  endfacet
  facet normal -0 0 1
    outer loop
      vertex 0.381966 15.1756 2
      vertex 1.5 14 2
      vertex 0.824429 15.618 2
    endloop
  endfacet
  facet normal 0 0 1
    outer loop
      vertex 0 2 2
      vertex 1.5 2 2
      vertex 0 14 2
    endloop
  endfacet
  facet normal -0 0 1
    outer loop
      vertex 0.0978861 14.618 2
      vertex 1.5 14 2
      vertex 0.381966 15.1756 2
    endloop
  endfacet
  facet normal 0 -0 1
    outer loop
      vertex 0.0978861 1.38197 2
      vertex 1.5 2 2
      vertex 0 2 2
    endloop
  endfacet
  facet normal 0 0 1
    outer loop
      vertex 1.5 14 2
      vertex 0.0978861 14.618 2
      vertex 0 14 2
    endloop
  endfacet
  facet normal 0 0 1
    outer loop
      vertex 1.5 2 2
      vertex 0.824429 0.381966 2
      vertex 1.38197 0.0978861 2
    endloop
  endfacet
  facet normal 0 0 1
    outer loop
      vertex 1.5 2 2
      vertex 0.381966 0.824429 2
      vertex 0.824429 0.381966 2
    endloop
  endfacet
  facet normal 0 0 1
    outer loop
      vertex 1.5 2 2
      vertex 0.0978861 1.38197 2
      vertex 0.381966 0.824429 2
    endloop
  endfacet
  facet normal 0 -1 0
    outer loop
      vertex 2 0 0
      vertex 8 0 2
      vertex 2 0 2
    endloop
  endfacet
  facet normal 0 -1 -0
    outer loop
      vertex 8 0 2
      vertex 2 0 0
      vertex 8 0 0
    endloop
  endfacet
  facet normal 0.891006 -0.453991 0
    outer loop
      vertex 9.61803 0.824429 2
      vertex 9.90211 1.38197 0
      vertex 9.90211 1.38197 2
    endloop
  endfacet
  facet normal 0.891006 -0.453991 0
    outer loop
      vertex 9.90211 1.38197 0
      vertex 9.61803 0.824429 2
      vertex 9.61803 0.824429 0
    endloop
  endfacet
  facet normal 0.453991 -0.891006 0
    outer loop
      vertex 8.61803 0.0978861 0
      vertex 9.17557 0.381966 2
      vertex 8.61803 0.0978861 2
    endloop
  endfacet
  facet normal 0.453991 -0.891006 0
    outer loop
      vertex 9.17557 0.381966 2
      vertex 8.61803 0.0978861 0
      vertex 9.17557 0.381966 0
    endloop
  endfacet
  facet normal -0.156433 -0.987689 0
    outer loop
      vertex 1.38197 0.0978861 0
      vertex 2 0 2
      vertex 1.38197 0.0978861 2
    endloop
  endfacet
  facet normal -0.156433 -0.987689 -0
    outer loop
      vertex 2 0 2
      vertex 1.38197 0.0978861 0
      vertex 2 0 0
    endloop
  endfacet
  facet normal -0.707107 -0.707107 0
    outer loop
      vertex 0.824429 0.381966 0
      vertex 0.381966 0.824429 2
      vertex 0.381966 0.824429 0
    endloop
  endfacet
  facet normal -0.707107 -0.707107 0
    outer loop
      vertex 0.381966 0.824429 2
      vertex 0.824429 0.381966 0
      vertex 0.824429 0.381966 2
    endloop
  endfacet
  facet normal -0.891006 -0.453991 0
    outer loop
      vertex 0.381966 0.824429 0
      vertex 0.0978861 1.38197 2
      vertex 0.0978861 1.38197 0
    endloop
  endfacet
  facet normal -0.891006 -0.453991 0
    outer loop
      vertex 0.0978861 1.38197 2
      vertex 0.381966 0.824429 0
      vertex 0.381966 0.824429 2
    endloop
  endfacet
  facet normal 0.987688 -0.156434 0
    outer loop
      vertex 9.90211 1.38197 2
      vertex 10 2 0
      vertex 10 2 2
    endloop
  endfacet
  facet normal 0.987688 -0.156434 0
    outer loop
      vertex 10 2 0
      vertex 9.90211 1.38197 2
      vertex 9.90211 1.38197 0
    endloop
  endfacet
  facet normal 0.707107 -0.707107 0
    outer loop
      vertex 9.17557 0.381966 2
      vertex 9.61803 0.824429 0
      vertex 9.61803 0.824429 2
    endloop
  endfacet
  facet normal 0.707107 -0.707107 0
    outer loop
      vertex 9.61803 0.824429 0
      vertex 9.17557 0.381966 2
      vertex 9.17557 0.381966 0
    endloop
  endfacet
  facet normal -0.987689 0.156433 0
    outer loop
      vertex 0 14 0
      vertex 0.0978861 14.618 2
      vertex 0.0978861 14.618 0
    endloop
  endfacet
  facet normal -0.987689 0.156433 0
    outer loop
      vertex 0.0978861 14.618 2
      vertex 0 14 0
      vertex 0 14 2
    endloop
  endfacet
  facet normal -0.453991 0.891006 0
    outer loop
      vertex 1.38197 15.9021 0
      vertex 0.824429 15.618 2
      vertex 1.38197 15.9021 2
    endloop
  endfacet
  facet normal -0.453991 0.891006 0
    outer loop
      vertex 0.824429 15.618 2
      vertex 1.38197 15.9021 0
      vertex 0.824429 15.618 0
    endloop
  endfacet
  facet normal -0.156434 0.987688 0
    outer loop
      vertex 2 16 0
      vertex 1.38197 15.9021 2
      vertex 2 16 2
    endloop
  endfacet
  facet normal -0.156434 0.987688 0
    outer loop
      vertex 1.38197 15.9021 2
      vertex 2 16 0
      vertex 1.38197 15.9021 0
    endloop
  endfacet
  facet normal -0.707107 0.707107 0
    outer loop
      vertex 0.381966 15.1756 0
      vertex 0.824429 15.618 2
      vertex 0.824429 15.618 0
    endloop
  endfacet
  facet normal -0.707107 0.707107 0
    outer loop
      vertex 0.824429 15.618 2
      vertex 0.381966 15.1756 0
      vertex 0.381966 15.1756 2
    endloop
  endfacet
endsolid OpenSCAD_Model
